<?xml version="1.0" encoding="UTF-8" standalone="no"?>
<svg
   xmlns:dc="http://purl.org/dc/elements/1.1/"
   xmlns:cc="http://creativecommons.org/ns#"
   xmlns:rdf="http://www.w3.org/1999/02/22-rdf-syntax-ns#"
   xmlns:svg="http://www.w3.org/2000/svg"
   xmlns="http://www.w3.org/2000/svg"
   xmlns:sodipodi="http://sodipodi.sourceforge.net/DTD/sodipodi-0.dtd"
   xmlns:inkscape="http://www.inkscape.org/namespaces/inkscape"
   version="1.1"
   id="Layer_1"
   x="0px"
   y="0px"
   viewBox="0 0 512 512"
   style="enable-background:new 0 0 512 512;"
   xml:space="preserve"
   width="512px"
   height="512px"
   class=""
   inkscape:version="0.48.2 r9819"
   sodipodi:docname="hummus.svg"><metadata
   id="metadata61"><rdf:RDF><cc:Work
       rdf:about=""><dc:format>image/svg+xml</dc:format><dc:type
         rdf:resource="http://purl.org/dc/dcmitype/StillImage" /></cc:Work></rdf:RDF></metadata><defs
   id="defs59" /><sodipodi:namedview
   pagecolor="#ffffff"
   bordercolor="#666666"
   borderopacity="1"
   objecttolerance="10"
   gridtolerance="10"
   guidetolerance="10"
   inkscape:pageopacity="0"
   inkscape:pageshadow="2"
   inkscape:window-width="640"
   inkscape:window-height="480"
   id="namedview57"
   showgrid="false"
   inkscape:zoom="0.4609375"
   inkscape:cx="256"
   inkscape:cy="256"
   inkscape:window-x="0"
   inkscape:window-y="0"
   inkscape:window-maximized="0"
   inkscape:current-layer="g3" /><g
   transform="matrix(0.94148, 0, 0, 0.94148, 14.9811, 14.9811)"
   id="g3"><path
     style="fill:#934D2B;"
     d="M502.865,188.049C473.095,79.648,373.856,0,256,0C114.615,0,0,114.615,0,256  c0,117.856,79.648,217.094,188.049,246.865L502.865,188.049z"
     data-original="#934D2B"
     class=""
     id="path5" /><path
     style="fill:#813115"
     d="M512,256c0-23.529-3.191-46.309-9.135-67.951l-89.458-89.458L98.592,413.408l89.458,89.458  c21.641,5.944,44.422,9.135,67.951,9.135C397.385,512,512,397.384,512,256z"
     data-original="#813115"
     class=""
     id="path7" /><path
     style="fill:#FFF3AD;"
     d="M256,33.391L144.696,256L256,478.609c122.943,0,222.609-99.665,222.609-222.609  S378.943,33.391,256,33.391z"
     data-original="#FFF3AD"
     class=""
     id="path9" /><path
     style="fill:#FFFFFF;"
     d="M33.391,256c0,122.943,99.665,222.609,222.609,222.609V33.391  C133.057,33.391,33.391,133.057,33.391,256z"
     data-original="#FFFFFF"
     class=""
     id="path11" /><path
     style="fill:#FFD23E;"
     d="M256,66.783L161.391,256L256,445.217c104.501,0,189.217-84.715,189.217-189.217  S360.501,66.783,256,66.783z"
     data-original="#FFD23E"
     class=""
     id="path13" /><path
     style="fill:#FFE376;"
     d="M66.783,256c0,104.503,84.716,189.217,189.217,189.217V66.783  C151.499,66.783,66.783,151.497,66.783,256z"
     data-original="#FFE376"
     class=""
     id="path15" /><path
     style="fill:#FFF3AD;"
     d="M256,144.696L211.478,256L256,367.304c61.472,0,111.304-49.832,111.304-111.304  S317.472,144.696,256,144.696z"
     data-original="#FFF3AD"
     class=""
     id="path17" /><path
     style="fill:#FFFFFF;"
     d="M144.696,256c0,61.472,49.832,111.304,111.304,111.304V144.696  C194.528,144.696,144.696,194.528,144.696,256z"
     data-original="#FFFFFF"
     class=""
     id="path19" /><path
     style="fill:#C9A06C;"
     d="M256,166.957L220.383,256L256,345.043c49.178,0,89.043-39.866,89.043-89.043  S305.178,166.957,256,166.957z"
     data-original="#C9A06C"
     class=""
     id="path21" /><path
     style="fill:#DBBC82;"
     d="M166.957,256c0,49.178,39.866,89.043,89.043,89.043V166.957  C206.822,166.957,166.957,206.822,166.957,256z"
     data-original="#DBBC82"
     class=""
     id="path23" /><g
     id="g25">
	<rect
   x="233.739"
   y="300.522"
   style="fill:#C9A06C;"
   width="33.391"
   height="22.261"
   data-original="#C9A06C"
   class=""
   id="rect27" />
	<rect
   x="200.348"
   y="267.13"
   style="fill:#C9A06C;"
   width="22.261"
   height="22.261"
   data-original="#C9A06C"
   class=""
   id="rect29" />
</g><rect
     x="289.391"
     y="233.739"
     style="fill:#B78456;"
     width="22.261"
     height="22.261"
     data-original="#B78456"
     id="rect31" /></g> </svg>