<svg width='200' height='200' fill="#000000" xmlns="http://www.w3.org/2000/svg" data-name="Layer 1" viewBox="0 0 100 100" x="0px" y="0px"><title>Noun Project</title><path d="M55.17,50.44c-2-2.07-4.21-3-6.19-2.63-4.47.85-6.38,7.87-5.73,11.35a6.76,6.76,0,0,0,3.2,4.52,7.9,7.9,0,0,0,4.14,1.15,8.53,8.53,0,0,0,1.58-.15,8,8,0,0,0,4.95-3,6.79,6.79,0,0,0,1.33-5.39A12.53,12.53,0,0,0,55.17,50.44Zm.36,10a6,6,0,0,1-3,2,.76.76,0,0,0-.26-.06c-.39-.37-1.23-2-1.76-4.81a12.57,12.57,0,0,1-.18-4.93,1,1,0,0,0-.7-1.23,1,1,0,0,0-1.23.7A14.51,14.51,0,0,0,48.57,58a18.4,18.4,0,0,0,1.57,4.79A6,6,0,0,1,47.49,62a4.82,4.82,0,0,1-2.27-3.19c-.57-3,1.23-8.46,4.13-9a2.63,2.63,0,0,1,.49-.05,5.89,5.89,0,0,1,3.89,2.1,10.63,10.63,0,0,1,2.75,4.83h0A4.78,4.78,0,0,1,55.53,60.46ZM45.84,37.32a8.18,8.18,0,0,0,4.5,1.38,6.92,6.92,0,0,0,5.86-3h0a12.43,12.43,0,0,0,1.71-6.47c0-2.88-.92-5.08-2.61-6.2-3.79-2.5-10,1.2-12,4.15C41.14,30.41,42.29,35,45.84,37.32ZM45,28.26a10.42,10.42,0,0,1,7.37-4.09,3.34,3.34,0,0,1,1.87.5c1.09.72,1.72,2.37,1.71,4.52a10.7,10.7,0,0,1-1.38,5.38A5.31,5.31,0,0,1,47.65,36a1.07,1.07,0,0,0-.15-.22c0-.54.52-2.3,2.09-4.68a12.45,12.45,0,0,1,3.3-3.66,1,1,0,1,0-1-1.73,14.48,14.48,0,0,0-4,4.29,17.71,17.71,0,0,0-2.23,4.54A5.22,5.22,0,0,1,45,28.26ZM77.6,59.18c-1.69-1.11-4.08-1.1-6.73,0a12.53,12.53,0,0,0-5.28,4.13c-2.15,3.25-1,7.82,2.55,10.17a8.25,8.25,0,0,0,4.5,1.37,6.93,6.93,0,0,0,5.86-3C80.45,68.9,81.39,61.69,77.6,59.18Zm-.77,11.57a5.32,5.32,0,0,1-6.89,1.46A1.35,1.35,0,0,0,69.8,72c0-.54.52-2.3,2.09-4.68a12.45,12.45,0,0,1,3.3-3.66,1,1,0,0,0-1-1.72,14.17,14.17,0,0,0-4,4.28,18,18,0,0,0-2.07,4c-.06.18-.11.34-.15.51a5.21,5.21,0,0,1-.74-6.32,10.73,10.73,0,0,1,4.4-3.39,7.72,7.72,0,0,1,3-.69,3.37,3.37,0,0,1,1.88.49C79,62.48,78.5,68.22,76.83,70.75Zm3.31-38c-1.6-3.56-6.07-5-10-3.28s-5.74,6.08-4.13,9.63h0c1.22,2.72,5.38,6.45,9.13,6.45a5.07,5.07,0,0,0,2.06-.43c1.84-.83,3.11-2.86,3.57-5.7A12.5,12.5,0,0,0,80.14,32.77Zm-1.31,6.35c-.34,2.13-1.22,3.66-2.41,4.19-2.7,1.22-7.3-2.24-8.55-5a5.32,5.32,0,0,1,2.41-6.59,1,1,0,0,0,.3,0c.47.27,1.67,1.67,2.84,4.27a12.5,12.5,0,0,1,1.33,4.74,1,1,0,0,0,1,1h0a1,1,0,0,0,1-1,14.52,14.52,0,0,0-1.51-5.64,18.51,18.51,0,0,0-2.31-3.91c-.11-.13-.22-.26-.33-.37a5.19,5.19,0,0,1,5.72,2.73A10.65,10.65,0,0,1,78.83,39.12Zm-51,24.66c-2.4,2.6-4.5,9.57-1.16,12.65a5.77,5.77,0,0,0,4,1.39,13,13,0,0,0,8.5-3.54c2.65-2.87,2.26-7.56-.87-10.45S30.47,60.91,27.82,63.78Zm9.89,9.14c-2.06,2.23-7.53,4-9.7,2s-.78-7.59,1.28-9.82a4.77,4.77,0,0,1,3.56-1.5,6.06,6.06,0,0,1,3.47,1.17,1.33,1.33,0,0,0,.1.24c-.06.54-.88,2.19-2.81,4.28a12.61,12.61,0,0,1-3.85,3.08,1,1,0,0,0-.57,1.29,1,1,0,0,0,.93.64,1.13,1.13,0,0,0,.36-.06,14.36,14.36,0,0,0,4.6-3.59A18.46,18.46,0,0,0,38,66.58,5.21,5.21,0,0,1,37.71,72.92ZM32.44,43.17c3.12-2.9,3.49-7.59.83-10.45a12.45,12.45,0,0,0-5.89-3.19c-2.8-.68-5.16-.3-6.64,1.08s-2,3.71-1.55,6.55A12.4,12.4,0,0,0,22,43.26a6.77,6.77,0,0,0,5,2.12A8.08,8.08,0,0,0,32.44,43.17ZM21.16,36.83c-.36-2.13,0-3.86.94-4.75a3.93,3.93,0,0,1,2.73-.88,8.87,8.87,0,0,1,2.08.27,10.78,10.78,0,0,1,4.9,2.61,5.34,5.34,0,0,1-.2,7,1,1,0,0,0-.25.08c-.53-.1-2.12-1-4.06-3.12A12.54,12.54,0,0,1,24.52,34a1,1,0,0,0-1.25-.67,1,1,0,0,0-.67,1.25,14.54,14.54,0,0,0,3.24,4.85,17.8,17.8,0,0,0,3.86,3.22,5.2,5.2,0,0,1-6.28-.76A10.75,10.75,0,0,1,21.16,36.83Z"/></svg>