<svg width='200' height='200' fill="#000000" xmlns="http://www.w3.org/2000/svg" xmlns:xlink="http://www.w3.org/1999/xlink" version="1.1" x="0px" y="0px" viewBox="0 0 100 100" style="enable-background:new 0 0 100 100;" xml:space="preserve"><g><path d="M38,39c-1.6,0.3-2.9,1.2-3.7,2.7c-0.2,0.5-0.1,1.1,0.4,1.3c0.1,0.1,0.3,0.1,0.5,0.1c0.4,0,0.7-0.2,0.9-0.5   c0.5-0.9,1.2-1.4,2.2-1.6c0.5-0.1,0.9-0.6,0.8-1.2C39.1,39.2,38.6,38.9,38,39z"/><path d="M83.4,47.3h-6.5c-0.5-3.3-3.3-5.9-6.8-5.9c-0.3,0-0.6-0.2-0.6-0.4c-0.7-3.1-3.4-5.4-6.6-5.4c0.1-3.9-1.9-6.9-5.8-8.8   c-0.9-0.4-1.9-0.3-2.7,0.3c-0.8,0.6-1.2,1.6-1,2.6c0.2,1,0,1.9-0.5,2.9c-0.6,1.2-1.7,2.1-3,2.6l0.9-4.7c0.1-0.6,0-1.2-0.4-1.7   s-0.9-0.8-1.5-0.9l-5.6-0.9c-0.7-0.1-1.4,0.1-1.9,0.6c-0.5,0.5-0.8,1.2-0.7,1.9l0.6,6.3h-4c0,0-0.1,0-0.1,0l-3.1-10   c-0.4-1.2-1.3-2.2-2.5-2.6c-1.2-0.4-2.5-0.2-3.6,0.5l-7.3,5.1c-1.8,1.2-2.2,3.7-1,5.5l6,8.8c-1.4,1.1-2.3,2.6-2.6,4.4h-6.5   c-2.4,0-4.4,2-4.4,4.4c0,17.9,12.4,26.6,37.8,26.6s37.8-8.7,37.8-26.6C87.8,49.3,85.8,47.3,83.4,47.3z M42.6,29.1   c0-0.1,0-0.2,0.1-0.2c0,0,0.1-0.1,0.2-0.1l5.6,0.9c0.1,0,0.1,0.1,0.2,0.1c0,0,0.1,0.1,0,0.2l-1,5.5c-0.1,0-0.2,0-0.3,0h-4.2   L42.6,29.1z M21.3,33c-0.6-0.9-0.4-2.1,0.5-2.7l7.3-5.1c0.5-0.4,1.2-0.5,1.8-0.3c0.6,0.2,1.1,0.7,1.2,1.3l3.1,9.8   c-2.3,0.7-4.1,2.6-4.6,5.1c-0.1,0.3-0.3,0.4-0.6,0.4c-0.9,0-1.7,0.2-2.4,0.5L21.3,33z M29.9,43.5c1.2,0,2.3-0.9,2.6-2   c0.5-2.2,2.5-3.9,4.8-3.9h10.2c3,0,5.8-1.6,7.2-4.1c0.7-1.3,1-2.7,0.7-4.1c-0.1-0.4,0.2-0.6,0.3-0.6c0.1-0.1,0.4-0.2,0.7-0.1   c3.5,1.6,5,4.2,4.5,7.8c0,0.3,0.1,0.6,0.2,0.8c0.2,0.2,0.5,0.3,0.8,0.3h0.9c2.3,0,4.3,1.6,4.8,3.8c0.2,1.2,1.3,2,2.6,2   c2.3,0,4.3,1.7,4.8,3.9H25.1C25.6,45.1,27.6,43.5,29.9,43.5z M16.6,49.3h66.8c1.3,0,2.4,1.1,2.4,2.4c0,0.3,0,0.6,0,0.9H14.2   c0-0.3,0-0.6,0-0.9C14.2,50.4,15.3,49.3,16.6,49.3z M50,76.3c-23,0-34.4-6.9-35.7-21.7h71.4C84.4,69.4,73,76.3,50,76.3z"/></g></svg>